<svg width="55" height="55" viewBox="0 0 55 55" fill="none" xmlns="http://www.w3.org/2000/svg">
<path d="M27.5 11.4584L27.5 6.87504" stroke="white" stroke-width="2" stroke-linecap="round"/>
<path fill-rule="evenodd" clip-rule="evenodd" d="M50.4167 18.3334H4.58337V25.2084H5.95802C7.49628 25.2084 8.26541 25.2084 8.81382 25.6483C9.36223 26.0882 9.52907 26.839 9.86277 28.3407L13.054 42.7011C13.3877 44.2027 13.5545 44.9535 14.1029 45.3935C14.6513 45.8334 15.4205 45.8334 16.9587 45.8334H16.9587H38.0414C39.5796 45.8334 40.3487 45.8334 40.8972 45.3935C41.4456 44.9535 41.6124 44.2027 41.9461 42.7011L45.1373 28.3407C45.471 26.839 45.6379 26.0882 46.1863 25.6483C46.7347 25.2084 47.5038 25.2084 49.0421 25.2084H50.4167V18.3334ZM20.4656 29.6273C20.3748 29.0825 19.8596 28.7145 19.3148 28.8053C18.77 28.8961 18.402 29.4113 18.4928 29.9561L19.6386 36.8311C19.7294 37.3759 20.2447 37.7439 20.7894 37.6531C21.3342 37.5623 21.7022 37.0471 21.6114 36.5023L20.4656 29.6273ZM36.507 29.9561C36.5978 29.4113 36.2298 28.8961 35.685 28.8053C35.1403 28.7145 34.625 29.0825 34.5343 29.6273L33.3884 36.5023C33.2976 37.0471 33.6656 37.5623 34.2104 37.6531C34.7552 37.7439 35.2704 37.3759 35.3612 36.8311L36.507 29.9561Z" fill="white"/>
</svg>
